<svg xmlns="http://www.w3.org/2000/svg" width="1024" height="574" aria-label="290 Grafix" viewBox="0 0 640 358"><g id="group-5-outer-stroke-layer"><path fill="#EB6A20" stroke="none" d="M317.5 83q19.7-1.2 26 11l7-5 11-2 6 1 9 4 6.5 6.5q7.1 8.4 5 26-1.9 12.1-7 21l1.5-.5q2.3-2.7 8-2l5 9 6-11 3-1 26.5 14.5-1 5-20 27-1 5 14 23 2 6-22.5 20.5-7 4-2-1-1.5 1.5-1 10 2 7-1 2.5-4-1.5v-22l-1-2.5-5.5 1 .5-1.5 3-8q-3.5-.5-3-5l5.5-9.5 2.5 3.5 5.5 18.5q13.8-7.7 24.5-18.5l-10-17-6-14 22-32-2.5-2.5-20.5-9-8.5 17-5.5-15-19.5 9q-5-2.5 0-5l3.5-2.5 9-16 2-10v-10q-1.9-11.1-9.5-16.5-6-5.5-19-4l-14.5 9-3-7-11.5-6h-12q-9.9 2.6-15 10-4.9-9.6-20-9-14.8 2.7-22.5 12.5l-7 12 6.5 7.5 7.5 5-13 14.5v2l5 11-1.5-.5q-4.2-4.3-14-3-8.7 2.8-13.5 9.5-6.7 8.8-10 21l-2 9v17q2.5 14.5 12.5 21.5 3 2.8 8.5 2l-1 6 6-1 4 9.5 10.5 13.5 22-12 23-7 20-3h27l16 3 8.5 4.5-3.5 4.5-18-6-29-1-21 4-5 4-10 1-4.5 2-2.5 5-6-2-13 10h-4q-10.2-8.9-15.5-22l-6.5-1-2.5-2.5-1-3 1-2.5-4.5-1-8.5-7.5-6-12-2-19 3-16 4-11q4.8-10.7 13.5-17.5l5-3 9-2 3.5 1-2-5.5 12-12-9-9q-4.1-1.9-3-9L256 95l13.5-8 8-2h10l12 7 4-4 8-4zm21 19 3.5 13.5h-3q.7-9.6-.5-13.5m-21 4 4.5.5-6 3q-3 2.3-2 7.5-3 1.3-2-2.5 1.3-5.7 5.5-8.5m-40 1 3.5 1q1.3 3-2.5 2l-5.5 5.5q-.6 5.9-4.5 8.5l-1.5-.5q3.7-.7 3-6l-1-2h1l.5 1.5 5.5-7.5-.5-1.5 2 1zm83 4q2.6-.7 1.5 2-2.7-1.1-2 1.5-5.9 6.6-6 19l1 2-2-1q1.5-7.5-1-11h1l.5 1.5q1.6-8.9 7-14m19 1q2.4 4.1 1.5 11.5l-5 16-9.5 10.5q-4.4 4.1-14 3v-1q7.3.8 10.5-2.5l-.5-1.5 2 1 2-4 1 3 4.5-6.5h-2l4-2 2-6-1-2h1l.5 1.5q4.1-7.9 3-21m-85 5 2.5 1q-3.8 9.8-12.5 16-2.2.8-1.5-1.5l-1-1 8.5-8.5q1.5 2.5 3-1l1.5-.5-.5-1.5 1.5-.5zm-3.5 7-7 8 7-6zm46.5 3 .5 1.5q-4.4 13.1-13.5 21.5-3.5 4-12 3l-2.5-1.5 2.5-.5 4 1 6.5-3.5-1-1 3.5-3.5 1 1 3.5-3.5 1-3-.5-1.5q1.3 2.3 2.5-.5l2-6-1-2h1l.5 1.5zm-30 3 8 1 3-1-1 2q-8.9 1.6-10-2m-7 3 .5 12.5-2.5 3.5h-18l-18 5v-1l10.5-3.5-2-1 1.5-.5 5 1q8.4-3.1 20.5-2.5l-.5-1.5 1.5.5zm20 23 3.5 39.5h-1l-2-24-1-1zm44 0 1.5 1.5v12h-1v-12zm3 1 .5 15.5-3.5 2.5-9 2 1-2 9.5-2 1-2.5zm-71 8 1.5 5.5-2 9 1 2h-1l-.5-1.5-9 11q-2.2.8-1.5-1.5l3-1 3-5-6 4 5.5-5.5q1.3 2.3 2.5-.5l-1-2h2l-1-2h2l2-9zm-14 3 1 2h-2l-4.5 1-1 10.5.5 1.5q-3.5-2-1.5-9.5l1-4.5zm68 0 2.5 1.5-3.5 2.5-9.5 1-1 7 2 .5-1.5.5-1.5-1.5V172l3-.5-2-1 1.5-.5 6 1 4.5-1.5zm-110 2 2.5.5-2 4-5 15v15l.5 1.5-1.5-1.5-1-11 3-14-.5-1.5 1.5.5 3-7h-2zm19 4 .5 2.5q-5.2 5.4-14 6.5-1.2-3 2.5-2l2.5-1.5-2-1 1.5-.5 3 1 2.5-1.5-2-1 1.5-.5 2 1zm107 3 .5 13.5-1 1-.5 18.5-.5-28.5zm-17 3 .5 6.5-1 6.5-10 2v19.5l-2.5.5-9 3-1-2 6.5-1.5-2-1 1.5-.5 4 1 1.5-1.5v-9q-2.7-1.7-1-8l3-2-2-1 1.5-.5 4 1v-1l-1.5-.5 1.5-.5 3 1-.5-1.5.5-2.5 1 3 .5-9.5zm-89 12 .5 4.5-1 1v8l-3 19-2.5 2.5-10 4-.5-2 11-4-1-5.5h1l.5 3.5zm14 9 .5 15.5-1.5 1.5-12 3v-1l1.5-.5-.5-1.5 3 1 8.5-3zm31 1 4.5.5-5 1.5-2 13-6-.5 5-2 1-9zm-13 8 1 3 1.5.5-1.5.5q-4.5-2-1-4m28 1 2.5 1.5q.8 2.3-1.5 1.5-2.3 2.7-8 2v-1l8.5-2.5zm37 2 5.5 1.5q-3.2 3.3-10.5 2.5v-1l6.5-1.5zm-70 1v2l4-2-3 4-1.5-.5q.8 2.3-1.5 1.5zm-46 6 .5 2.5-1.5 2.5-8 1v-1q6.2.7 8.5-2.5-2.2-1.3.5-2.5m84 9 25 1 13.5 3.5-2.5.5-13-3h-30l-29 5-15 5-18 9v-3l2 1 3.5-2.5-.5-1.5 2 1 6.5-3.5-.5-1.5 3 1 7.5-3.5-.5-1.5 4 1 17-5 13-1 1-1h10"/></g><g id="group-1-290"><path fill="#FFFFFF" stroke="#000" stroke-linejoin="round" stroke-width=".45" d="M315.5 93q13.6-1.7 18.5 5.5 5.5 6 4 19-3.9 20.6-17.5 31.5l-9 1-6.5-4.5-2-3-1-6.5 6.5-1q.8 3.8 6 3 5.3-3.7 7.5-10.5l-1.5-.5q-3.7 3.3-12 2l-7.5-4-3-5.5v-9l6-11.5zm3.5 11-2 1q-8 3-6 14l3 1 5-1q6-3 6-12-1-4-6-3m-38.5-10q8.5.2 12.5 4 4.4 4.4 3 15.5l-4 8-13.5 13.5-2.5 1.5 1.5.5 20-5 1.5 2.5-1 1v9l-1.5 1.5q-21.6-1.6-34 6l-5.5-11.5 21-21 5-8v-3q-1-2.5-5.5-1.5l-6.5 5.5-3 8.5q-7.6-2.2-12-8.5L267.5 99zm76 3q14.4-.9 18.5 8.5l3 9v8q-2.3 14.2-10.5 22.5-4.6 6.4-17 5l-8.5-6.5q-4.8-6.2-3-19 2.8-14.2 10.5-23.5zm3.5 13q-7 6-9 18l1 9q1 2 6 1 6-5 8-14l-1-12q-1-3-5-2" paint-order="stroke fill"/></g><g id="group-2-grafix"><path fill="#EB6A20" stroke="none" d="m406 155 8 3v2.5l-18 25-1 4 14 28-8.5 6.5-11-29-13 22-7.5-3.5 16-22 1-6-11-21V162l8.5-4 8 23q2.3.8 1.5-1.5zm-21 20 3 10h1zm8 10-3 3 1 2 2-3zm-4.5-28 4.5 14.5h-1l-1.5-4.5-1 2-.5-1.5 1-3h-1l-.5 1.5-.5-1.5 1-4zm30.5 2q2.7-1.1 2 1.5L400.5 190l-.5-2.5 1-2-.5-1.5q1.7 2.8 3.5-1.5l4-7h-2l4-2-1-2 3-1-1-2q2 1.7 4-2l2-4h-2l4-2zm-28.5 44-1.5 2.5q-3.3 11.2-10.5 18.5l-.5-1.5 7-13-.5-1.5 1.5.5-1-2 3-1q-.7-2.2 1.5-1.5zm22 15 2.5.5q1.1 3.3-1.5 2.5l-10 8-4 1v-1l2.5-1.5-.5-1.5 2 1 2-4v2l3.5-2.5q-2.2-1.3.5-2.5v2l3.5-2.5z"/><path fill="#FFFFFF" stroke="#000" stroke-linejoin="round" stroke-width=".45" d="m405 151 13 7.5-20 29v2q5.8 15.7 15 28L399.5 228l-9.5-28q-2.7-1.1-2 1.5L377.5 221l-12.5-6.5 19-27-12-26 11.5-6.5h2.5q1.2 12 6.5 21zm1 4-13 25q1 2-1 1l-8-23-9 4v3l11 21-1 6-16 22 8 3 13-22 11 29 8-6-14-28 1-4 18-25v-3zm-162.5-1 8.5 3 5 9.5v9.5l-12 4v-10.5l-1.5-1.5-4.5 3.5-6 17v15l3.5 5.5q5.1.6 6.5-2.5l3-8.5-4.5 2-3.5-9.5 3.5-2.5 17-5 .5 9.5-5 31.5-10.5 4-.5-4.5 2-5-2-.5q1.1 2.7-1.5 2-2.2 4.3-10 3l-7.5-6.5q-5.6-8.9-4-25l4-16q3.9-11.6 12.5-18.5zm108 0 .5 6.5q-2.5 1.5-1 7l-1.5 1.5q-8.3-.7-12.5 2-1.7 3.5-1 10.5l1.5-.5 9.5-2-1 12-10 2v18.5l-1.5 1.5-9.5 2v-20.5l1-1v-14l1-6.5-3-1.5v-10l1.5-1.5zm-75 1q11-.5 15.5 5.5 4.2 3.8 3 13l-3 7-9 9v2l11 16v2.5l-9.5 7-2.5-2.5-8.5-19.5-1.5 15.5 1 3-13 5.5 4-46h-3v-6.5l-1-6 1.5-1.5zm2.5 12-3 1-2 2q2 6-1 8l1 7 3-2 7-8v-5zm37.5-12 1.5.5v8l1 1v11l4 26v9.5l-11 2v-11.5l-1.5-1.5-7 1-1.5 1.5-1 10-1.5 1.5q-4.7.8-6.5-1.5 3.5-.5 3-5l-4-6v-3l8-29 1-9 1.5-1.5zm-6.5 18-2 2-3 15v1q5 1 6-1l-1-1zm53.5-17 1.5 1.5v13q-4.2 3.5-11 3.5v-13.5l1.5-1.5zm21 19 6 12 7-9-.5 1.5-6 10 .5 1.5-7.5-14.5zm-22 1 1.5.5v34l-3.5 2.5-9.5 2 1-17.5 1-1v-16l2.5-2.5z" paint-order="stroke fill"/></g><g id="group-3-underline-swoosh"><path fill="#FFFFFF" stroke="#000" stroke-linejoin="round" stroke-width=".45" d="M303.5 220h36l1 1h8l16 3 14.5 6.5-4.5 5.5-11-5-16-3h-30l-32 6-19 7-11 7-8.5-12.5V233l19.5-7z" paint-order="stroke fill"/></g><g id="group-4-drip-element"><path fill="#EB6A20" stroke="none" d="m381.5 231 1.5.5-6.5 7.5q-2.6.7-1.5-2l3-1.5-.5-1.5-2.5 1.5z"/></g></svg>